PathFileType	4	(X/Y/Z)	OpenSim_Sub07_CSStiffKnee_Accel.trc
DataRate	CameraRate	NumFrames	NumMarkers	Units	OrigDataRate	OrigDataStartFrame	OrigNumFrames
100	100	34	8	m	100	2526	6734
Frame#	Time	torso_imu_offset_imu	pelvis_imu_offset_imu	tibia_r_imu_offset_imu	femur_r_imu_offset_imu	tibia_l_imu_offset_imu	femur_l_imu_offset_imu	toes_r_imu_offset_imu	toes_l_imu_offset_imu
				X1	Y1	Z1	X2	Y2	Z2	X3	Y3	Z3	X4	Y4	Z4	X5	Y5	Z5	X6	Y6	Z6	X7	Y7	Z7	X8		Y8	Z8	

2526	25.25000000	-8.44943840	0.48654966	6.42167315	9.15811554	0.15944381	3.69341819	3.82811915	6.82291434	-1.19738903	10.48017739	-2.02800372	3.26940114	9.76228814	-0.57037603	0.05977701	9.18682672	1.84004372	-2.43980412	2.50024978	-3.45800436	8.92681551	5.62680253	1.44920715	10.66623843
2527	25.26000000	-8.22763561	0.39828665	6.38158041	8.98009147	0.23495664	3.63605432	3.90987114	5.91763317	-0.88087429	10.40354789	-2.30759085	3.54052884	9.59700891	-0.34435925	-0.05175666	8.87653646	2.29577520	-2.12577925	2.73217391	-3.05495015	8.60618784	5.54712690	1.53591780	10.76970933
2528	25.27000000	-8.04312970	0.27909952	6.28624699	8.76512380	0.29027451	3.59600081	3.83412015	4.80707408	-0.82803542	10.15857765	-2.56783807	3.60875696	9.41660918	-0.14564389	-0.26980862	8.53311068	2.77822257	-1.78071084	2.61154933	-1.71028618	8.14593653	4.83684946	1.72486690	11.06392935
2529	25.28000000	-7.88551009	0.11671601	6.22081464	8.55420470	0.28730261	3.52007028	4.05597679	3.66374785	-0.81788917	9.69687831	-2.71018708	3.37308547	9.42567215	0.20076632	-0.32517303	8.49561069	2.96431118	-1.53337695	2.62296656	-0.20734230	7.76155496	5.17258004	1.84264354	10.84075943
2530	25.29000000	-7.81437623	0.04207502	6.23839206	8.42100139	0.25455411	3.41355403	4.56331503	3.04936211	-0.76408295	9.22526060	-2.75111358	2.99403747	9.50525138	0.39605372	-0.46590139	8.69274761	3.03333718	-1.42660453	2.65479347	0.82685537	7.43911681	5.44044239	1.73061250	10.70304826
2531	25.30000000	-7.75815734	-0.02065653	6.20382603	8.37348812	0.10145717	3.29546122	5.30117680	3.60017907	-0.81009218	8.72229211	-2.59094518	2.41634994	9.53313231	0.20811136	-0.54400070	8.59790286	3.04382161	-1.37765566	2.71912801	1.34705674	7.25781046	5.48140187	1.75245045	10.67605671
2532	25.31000000	-7.75923124	-0.09761260	6.17552585	8.38207596	-0.05756445	3.14323147	5.48407550	4.31104793	-1.15125787	8.26734097	-2.09827649	1.83329865	9.53399296	0.04965631	-0.38654378	8.50153930	2.87995789	-1.47673857	2.74232070	1.56526283	7.48389936	5.21829422	1.74464330	10.88436945
2533	25.32000000	-7.73001673	-0.15185910	6.17253333	8.50524199	-0.09246753	3.00504546	5.79520468	4.27417303	-0.86399791	7.88532982	-1.72196209	1.40075709	9.46348032	-0.32614839	0.00924688	8.49295922	2.65380635	-1.60872331	3.54687365	1.77855006	7.85132486	5.46027237	1.72839652	10.78286447
2534	25.33000000	-7.77245248	-0.22626618	6.20455289	8.69810863	-0.20592242	2.94736273	6.22779322	3.95473029	-1.09451289	7.67371103	-1.47478015	1.22367467	9.34840367	-0.60484188	0.19357657	8.59128036	2.29673558	-1.68530464	4.51231557	2.13494597	8.35440337	5.68816531	1.48463437	10.57572695
2535	25.34000000	-8.07595147	-0.23283316	6.31936026	8.77310765	-0.30717136	2.83109833	6.19991825	4.03618674	-1.59775273	7.79028182	-1.12805266	1.28666212	9.51517487	-1.04602583	0.33883793	8.83264178	2.04419026	-1.78925338	5.44214499	2.50326136	8.54554492	5.69202718	1.22789490	10.64892613
2536	25.35000000	-8.20240064	-0.22512434	6.35740482	8.97668146	-0.13837913	2.75099659	5.67551128	4.55688439	-1.12610234	8.01675309	-0.88889537	1.49186508	9.69695284	-1.34419433	0.58577853	8.96484037	2.00580598	-1.85495256	6.43588555	2.64806155	8.35671348	5.68441457	1.16165358	10.73746045
2537	25.36000000	-8.32064070	-0.21214453	6.45563536	9.03566478	-0.42044294	2.74520090	5.69308717	5.29013477	-0.28161035	8.14778725	-0.50712756	1.54687108	9.60090158	-1.70809512	0.50211027	9.18421141	1.88284136	-1.92509459	7.10530447	2.31573179	8.08503811	5.18257809	1.22218555	10.95252883
2538	25.37000000	-8.47621018	-0.18595142	6.59522395	9.34809069	-0.10977047	2.62501542	6.06713769	5.97488930	-0.27797293	8.18057746	-0.12428089	1.47844915	9.65526665	-1.91768773	0.52125375	9.31409775	2.14306932	-1.97227559	7.44529045	2.33095519	8.28634562	5.51406029	1.13169502	10.80940111
2539	25.38000000	-8.63429421	-0.19611632	6.67582707	9.30218256	-0.50371184	2.47884039	6.29669149	6.90334240	-1.84578460	8.17748549	0.33538137	1.34222981	9.85202570	-2.08816094	0.61176179	9.49669347	1.41803099	-1.82852742	7.96484910	3.07920335	9.06517161	5.57670382	1.03045710	10.79559192
2540	25.39000000	-8.68051775	-0.20957821	6.77325117	9.28721400	-0.57099481	2.40132877	7.33860070	8.07223881	-3.36002668	8.18275901	0.82279740	1.29129501	9.97791394	-2.07252144	0.60317347	9.71557013	1.49465285	-1.88133451	8.61641426	3.51441593	9.82253028	5.62360449	1.08577132	10.89730511
2541	25.40000000	-8.69355071	-0.27948350	6.80465794	9.20027407	-0.39501360	2.25398324	8.55798661	9.23777726	-4.67129280	8.13346528	1.00443634	1.33983807	10.03714034	-1.98802327	0.53619359	9.67596146	1.16639386	-1.72527806	10.23247023	3.53884619	10.23532793	5.05676838	0.99522070	11.09097040
2542	25.41000000	-8.72152344	-0.29866577	6.76658206	9.05101195	-0.61382522	2.20837870	9.64159646	9.26720558	-5.00792657	7.89375140	0.65006731	1.57267439	10.05890572	-1.61560279	0.50730339	9.77109670	1.10617678	-1.69020653	13.65088643	3.20411589	10.41691141	5.38265207	1.05121436	11.12247287
2543	25.42000000	-8.77155485	-0.31818231	6.75813786	8.86685073	-0.55046588	2.13473613	8.76677746	7.96382674	-3.80509522	7.40559454	-0.18330342	1.73306785	10.29075235	-1.40861524	0.37710356	9.87874663	1.57553851	-1.77335527	17.09095812	2.72883467	9.83017034	5.51281701	1.04945453	11.06689115
2544	25.43000000	-8.74502989	-0.32947119	6.60351102	8.69552597	-0.53683043	1.98385279	7.99440479	6.66806390	-2.93844866	6.94341998	-1.31998789	1.76430125	10.55476141	-1.37739483	0.23315773	9.90218553	1.87494444	-1.62186884	18.30671098	2.24593489	8.22475449	5.33419956	1.00924809	11.08475906
2545	25.44000000	-8.66091185	-0.37871529	6.38934473	8.69201162	-0.47146005	1.76776155	8.54772911	5.53414087	-2.48359415	6.85039756	-3.32321254	1.34283484	10.64530755	-1.31844760	0.25300061	9.94125922	2.28826580	-1.49185092	19.16966037	1.36065501	6.45016813	5.07282951	0.98804172	11.24159611
2546	25.45000000	-8.71240300	-0.36800517	6.19424189	8.91244721	-0.49238248	1.54673469	8.74941437	3.94025848	-1.73257980	7.04327383	-6.12005030	0.77784785	10.57871928	-0.93660188	0.18753980	9.65871127	2.86173760	-1.34467793	20.74262527	0.14963813	4.98558403	5.53356951	1.20381848	11.03769377
2547	25.46000000	-8.90616018	-0.41793360	6.19858486	9.18123435	-0.47612904	1.42163667	8.52927416	2.65284241	-1.38871053	7.34042051	-8.64999509	0.29984512	10.64735428	-0.21832685	0.10690834	9.46098421	3.35642738	-1.28144460	21.13933479	-0.85286330	3.39354008	5.67517347	0.82734981	10.95973652
2548	25.47000000	-9.19223360	-0.41077423	6.31787958	9.31309095	-0.51769809	1.39070657	8.35642644	2.19994695	-1.62942048	7.81483832	-10.30835799	-0.22709855	10.78019466	0.45395553	0.25799764	9.40271775	3.94066613	-1.18979180	20.29509524	-1.13942236	1.62353471	5.47579045	0.96261665	11.12065886
2549	25.48000000	-9.36221951	-0.33042790	6.37997863	9.45451037	-0.55274006	1.22082357	8.64904805	2.20786122	-1.27179362	8.16617816	-10.73448626	-0.79570459	10.62452036	1.11414199	0.23369816	9.14484815	4.14847866	-1.08245843	19.23385386	-1.42001924	-0.39326664	5.27865805	1.18301237	11.34892725
2550	25.49000000	-9.42439720	-0.25506836	6.27977027	9.53916312	-0.66678657	0.97578348	9.09383106	2.38444729	-0.88296648	8.13441244	-9.85768634	-1.25209209	10.77545404	1.09646474	-0.14785678	9.10252249	4.33595234	-1.23335210	18.65407179	-0.55739205	-0.91794340	4.97453075	1.26735582	11.48521941
2551	25.50000000	-9.48209783	-0.13752302	6.16708902	9.59910610	-0.76198243	0.96455918	8.80073392	2.81715240	-0.77851590	7.83676216	-8.43850357	-1.34156030	10.95881416	0.67236294	-0.13512276	9.41265266	4.53688741	-1.26207909	15.99022121	-5.43300047	-6.49659934	5.57778998	1.17837273	11.36829704
2552	25.51000000	-9.64048059	-0.10376554	6.31985909	9.81433177	-0.76798591	1.37842626	8.73475445	1.95892228	-0.79059019	7.82269361	-7.13344766	-1.18330823	11.09954677	0.46451945	-0.24458067	9.70255235	3.91113202	-1.30171275	12.58221656	-11.65709709	-19.23939071	5.43551667	0.90654109	11.49248281
2553	25.52000000	-9.95105987	-0.08236889	6.48864820	10.17858423	-0.59769727	1.39723716	8.94715588	-0.97858958	-0.36611537	7.61521382	-6.35233806	-1.54869503	11.33183642	0.82220185	-0.25999843	9.90431195	4.17619168	-1.67356555	21.42678557	2.28605062	-17.87402918	5.00994841	0.85476052	11.81664410
2554	25.53000000	-9.89175352	-0.15156645	6.37529513	10.20146035	-0.45657838	1.20213467	8.88414532	-1.41476028	-0.41082875	6.84464553	-6.20684151	-1.26304526	11.23413251	1.17666191	0.26884902	9.59144096	4.61149476	-1.89981568	35.16225831	7.61558578	-19.21892277	4.50101315	0.86625815	11.72160470
2555	25.54000000	-9.59838711	-0.15004999	6.47417706	10.15089309	-0.25214322	1.53847428	7.66151486	1.06359282	-2.29429947	6.01609211	-6.84539308	0.09239660	10.99910209	1.59175933	0.75720722	9.63845108	4.12404253	-2.02422942	25.58002560	3.65524892	-12.34027233	4.91553660	0.94687352	11.60345312
2556	25.55000000	-9.62946651	-0.06341991	6.80853121	10.36482000	0.08552867	2.50180587	7.85880101	2.50626378	-3.28265193	6.39513071	-8.23489815	0.78088077	11.15710818	1.64764206	0.63554755	9.19544714	3.93772566	-2.20551318	14.14018352	9.36030232	16.63308819	4.98971151	0.45770606	11.59848546
2557	25.56000000	-10.33467606	-0.07471234	7.31520422	10.86996020	0.56299728	3.79697223	11.87747482	2.29003407	-0.26301744	12.33630049	-8.54966659	-1.41935041	11.60714541	1.44611313	0.57668371	9.22695869	2.80619310	-1.90388161	16.53567582	13.95250853	20.50965000	4.99382813	0.20725012	11.72646241
2558	25.57000000	-11.73568449	-0.06077377	7.69263868	11.24873508	1.26468115	4.18937933	14.77906683	0.43087913	6.65772686	17.41976427	-4.22305647	-0.37568848	12.15868742	0.87092251	0.53320197	9.69935857	1.87377928	-1.85742993	6.53284586	2.21996633	12.49390655	5.15728536	0.32771416	12.07222153
2559	25.58000000	-12.25838407	0.18762251	7.54209294	11.64414630	1.74021612	3.83492230	14.64970507	5.10335922	3.91602841	13.31181643	0.40406248	4.28368461	12.43827408	0.38522523	0.99613244	10.23080919	1.61966194	-2.13783616	18.10416387	-5.69172246	16.71540201	5.79582759	0.81842093	12.15482174
